Coordinates
version=1
nRows=4
nColumns=63
inDegrees=yes

Units are S.I. units (second, meters, Newtons, ...)
If the header above contains a line with 'inDegrees', this indicates whether rotational values are in degrees (yes) or radians (no).

endheader
time	pelvis_tilt	pelvis_list	pelvis_rotation	pelvis_tx	pelvis_ty	pelvis_tz	hip_flexion_r	hip_adduction_r	hip_rotation_r	knee_angle_r	knee_angle_r_beta	ankle_angle_r	subtalar_angle_r	mtp_angle_r	hip_flexion_l	hip_adduction_l	hip_rotation_l	knee_angle_l	knee_angle_l_beta	ankle_angle_l	subtalar_angle_l	mtp_angle_l	L5_S1_Flex_Ext	L5_S1_Lat_Bending	L5_S1_axial_rotation	L4_L5_Flex_Ext	L4_L5_Lat_Bending	L4_L5_axial_rotation	L3_L4_Flex_Ext	L3_L4_Lat_Bending	L3_L4_axial_rotation	L2_L3_Flex_Ext	L2_L3_Lat_Bending	L2_L3_axial_rotation	L1_L2_Flex_Ext	L1_L2_Lat_Bending	L1_L2_axial_rotation	L1_T12_Flex_Ext	L1_T12_Lat_Bending	L1_T12_axial_rotation	Abs_r3	Abs_r2	Abs_r1	Abs_t1	Abs_t2	neck_flexion	neck_bending	neck_rotation	arm_flex_r	arm_add_r	arm_rot_r	elbow_flex_r	pro_sup_r	wrist_flex_r	wrist_dev_r	arm_flex_l	arm_add_l	arm_rot_l	elbow_flex_l	pro_sup_l	wrist_flex_l	wrist_dev_l
      4.74468085	     -4.43062193	     -5.14792827	    101.89239461	      0.20284481	      0.36154020	      0.62910938	    -12.19912298	     -3.81721617	    -10.11660581	      3.70641024	      0.06468906	     15.60017555	      6.30517336	      0.00000000	    -11.03074003	      4.60038363	     -7.09051031	      0.92053781	      0.01606642	     16.81131620	      6.32945099	      0.00000000	     -0.06076558	     -0.88736340	     -0.79377924	     -0.11284776	     -1.18019332	     -0.84339045	     -0.09983177	     -2.15753536	     -0.84339045	     -0.06944898	     -2.15753536	     -0.69455684	     -0.05642692	     -1.80951144	     -0.64494564	     -0.03472145	     -1.37452590	     -0.59533443	     -0.43404247	    -10.03803220	     -4.41476203	      0.00000000	      0.00000000	     15.34210771	      5.61890179	      2.81643801	     64.11216990	      0.51178903	     17.64561188	     84.23605928	     89.00915188	     -7.03783220	      7.06804865	     39.10138296	      2.74037920	      9.53796201	     86.38956900	     88.30577895	    -21.76689650	     -5.39036129
      4.76595745	     -4.48784951	     -5.02634550	    101.82006568	      0.20433759	      0.36191368	      0.62905979	    -12.32561139	     -3.73934520	     -9.44642896	      3.58578594	      0.06258377	     15.34479075	      5.50811020	      0.00000000	    -11.12323787	      4.56042928	     -6.60684420	      0.95515363	      0.01667058	     16.49359237	      5.19549778	      0.00000000	     -0.07602088	     -0.90722451	     -0.72863457	     -0.14117837	     -1.20660860	     -0.77417423	     -0.12489470	     -2.20582568	     -0.77417423	     -0.08688426	     -2.20582568	     -0.63755525	     -0.07059299	     -1.85001223	     -0.59201559	     -0.04343833	     -1.40529077	     -0.54647592	     -0.54300954	    -10.26270513	     -4.05244687	      0.00000000	      0.00000000	     15.07774062	      5.46839712	      3.03049887	     64.34205127	      0.47335404	     17.27952970	     84.06788492	     88.95895285	     -7.25291008	      7.23184993	     39.26647728	      2.79619405	      9.83131315	     85.94608429	     88.31573949	    -21.51814385	     -5.13219436
      4.78723404	     -4.59839308	     -4.97327601	    102.01121217	      0.20579211	      0.36219549	      0.62895411	    -12.45822404	     -3.65785650	     -9.34687841	      3.42323015	      0.05974664	     15.20828773	      5.19973347	      0.00000000	    -11.16136588	      4.49539026	     -6.94205571	      1.04659211	      0.01826648	     16.33759479	      5.64132064	      0.00000000	     -0.09138750	     -0.93931790	     -0.64672292	     -0.16971572	     -1.24929281	     -0.68714310	     -0.15014052	     -2.28385755	     -0.68714310	     -0.10444677	     -2.28385755	     -0.56588255	     -0.08486243	     -1.91545707	     -0.52546237	     -0.05221882	     -1.45500343	     -0.48504219	     -0.65277176	    -10.62575199	     -3.59687884	      0.00000000	      0.00000000	     14.79595483	      5.57975461	      3.12611570	     64.55627983	      0.17533855	     16.66616498	     83.82818011	     88.90015712	     -7.15567654	      7.44665786	     39.63786448	      2.96644294	     10.38141596	     85.28221744	     88.21952187	    -20.51992175	     -4.61838708
      4.80851064	     -4.67444556	     -5.13405928	    102.08650616	      0.20735368	      0.36208484	      0.62864170	    -12.33727199	     -3.60361909	     -8.77350276	      3.29547542	      0.05751690	     15.15298877	      4.54592201	      0.00000000	    -10.99302205	      4.47695520	     -6.81577726	      1.15865319	      0.02022231	     16.12710290	      5.27448322	      0.00000000	     -0.08048199	     -0.97735004	     -0.42472332	     -0.14946310	     -1.29987555	     -0.45126852	     -0.13222386	     -2.37632889	     -0.45126852	     -0.09198286	     -2.37632889	     -0.37163290	     -0.07473557	     -1.99301220	     -0.34508769	     -0.04598741	     -1.51391521	     -0.31854249	     -0.57487479	    -11.05597912	     -2.36218367	      0.00000000	      0.00000000	     14.66687243	      5.91309914	      2.52754046	     64.60184725	     -0.93311063	     15.92105891	     84.21909556	     88.73927009	     -7.45985470	      9.06201058	     40.27315557	      3.47406905	     11.84456793	     84.26091933	     88.29680904	    -20.86767421	     -4.34371083
